<svg baseProfile="full" height="100%" version="1.1" viewBox="25.0,5.0,475.0,180.0" width="100%" xmlns="http://www.w3.org/2000/svg" xmlns:ev="http://www.w3.org/2001/xml-events" xmlns:xlink="http://www.w3.org/1999/xlink"><defs /><g><line stroke="lightgrey" stroke-dasharray="2" x1="130.0" x2="129.0" y1="15.0" y2="15.0" /><line stroke="lightgrey" stroke-dasharray="2" x1="110.0" x2="129.0" y1="35.0" y2="35.0" /><line stroke="lightgrey" stroke-dasharray="2" x1="90.0" x2="129.0" y1="55.0" y2="55.0" /><line stroke="lightgrey" stroke-dasharray="2" x1="70.0" x2="129.0" y1="75.0" y2="75.0" /><line stroke="lightgrey" stroke-dasharray="2" x1="50.0" x2="129.0" y1="95.0" y2="95.0" /><line stroke="lightgrey" stroke-dasharray="2" x1="90.0" x2="129.0" y1="115.0" y2="115.0" /><line stroke="lightgrey" stroke-dasharray="2" x1="110.0" x2="129.0" y1="135.0" y2="135.0" /><line stroke="lightgrey" stroke-dasharray="2" x1="50.0" x2="129.0" y1="155.0" y2="155.0" /><line stroke="lightgrey" stroke-dasharray="2" x1="110.0" x2="129.0" y1="175.0" y2="175.0" /></g><g><line stroke="#53c653" stroke-width="2.0" x1="75.0" x2="75.0" y1="55.0" y2="115.0" /><line stroke="#c6c653" stroke-width="2.0" x1="95.0" x2="95.0" y1="35.0" y2="100.0" /><line stroke="#5353c6" stroke-width="2.0" x1="35.0" x2="35.0" y1="95.0" y2="155.0" /><line stroke="#53c6c6" stroke-width="2.0" x1="55.0" x2="55.0" y1="75.0" y2="160.0" /><line stroke="#c653c6" stroke-width="2.0" x1="75.0" x2="75.0" y1="115.0" y2="160.0" /><line stroke="#c65353" stroke-width="2.0" x1="95.0" x2="95.0" y1="135.0" y2="175.0" /><line stroke="#c65353" stroke-width="2.0" x1="115.0" x2="115.0" y1="15.0" y2="160.0" /></g><g><line stroke="white" stroke-width="6.0" x1="55.0" x2="100.0" y1="75.0" y2="75.0" /><line stroke="white" stroke-width="6.0" x1="35.0" x2="40.0" y1="95.0" y2="95.0" /><line stroke="white" stroke-width="6.0" x1="50.0" x2="75.0" y1="115.0" y2="115.0" /><line stroke="white" stroke-width="6.0" x1="75.0" x2="80.0" y1="115.0" y2="115.0" /><line stroke="white" stroke-width="6.0" x1="50.0" x2="95.0" y1="135.0" y2="135.0" /><line stroke="white" stroke-width="6.0" x1="70.0" x2="95.0" y1="175.0" y2="175.0" /><line stroke="white" stroke-width="6.0" x1="95.0" x2="100.0" y1="175.0" y2="175.0" /></g><g><path d="M 115.0,60.0 a15.0,15.0 0 0,1 -15.0,15.0" fill="none" stroke="#c65353" stroke-width="2.0" /><line stroke="#c65353" stroke-width="2.0" x1="55.0" x2="100.0" y1="75.0" y2="75.0" /><path d="M 55.0,80.0 a15.0,15.0 0 0,1 -15.0,15.0" fill="none" stroke="#53c6c6" stroke-width="2.0" /><line stroke="#53c6c6" stroke-width="2.0" x1="35.0" x2="40.0" y1="95.0" y2="95.0" /><path d="M 35.0,100.0 a15.0,15.0 0 0,0 15.0,15.0" fill="none" stroke="#5353c6" stroke-width="2.0" /><line stroke="#5353c6" stroke-width="2.0" x1="50.0" x2="75.0" y1="115.0" y2="115.0" /><path d="M 95.0,100.0 a15.0,15.0 0 0,1 -15.0,15.0" fill="none" stroke="#c6c653" stroke-width="2.0" /><line stroke="#c6c653" stroke-width="2.0" x1="75.0" x2="80.0" y1="115.0" y2="115.0" /><path d="M 35.0,120.0 a15.0,15.0 0 0,0 15.0,15.0" fill="none" stroke="#5353c6" stroke-width="2.0" /><line stroke="#5353c6" stroke-width="2.0" x1="50.0" x2="95.0" y1="135.0" y2="135.0" /><path d="M 55.0,160.0 a15.0,15.0 0 0,0 15.0,15.0" fill="none" stroke="#53c6c6" stroke-width="2.0" /><path d="M 75.0,160.0 a15.0,15.0 0 0,0 15.0,15.0" fill="none" stroke="#c653c6" stroke-width="2.0" /><line stroke="#53c6c6" stroke-width="2.0" x1="70.0" x2="95.0" y1="175.0" y2="175.0" /><path d="M 115.0,160.0 a15.0,15.0 0 0,1 -15.0,15.0" fill="none" stroke="#c65353" stroke-width="2.0" /><line stroke="#c65353" stroke-width="2.0" x1="95.0" x2="100.0" y1="175.0" y2="175.0" /></g><g><circle cx="115.0" cy="15.0" fill="#c65353" id="Nqc" r="6.0" stroke="white" stroke-width="2.0" /><text dominant-baseline="middle" font-family="sans-serif" font-size="inherit" x="135.0" y="15.0">qc</text><circle cx="95.0" cy="35.0" fill="#c6c653" id="NmakeRefFlat" r="6.0" stroke="white" stroke-width="2.0" /><text dominant-baseline="middle" font-family="sans-serif" font-size="inherit" x="135.0" y="35.0">makeRefFlat</text><circle cx="75.0" cy="55.0" fill="#53c653" id="NmakeRibosomalInterval" r="6.0" stroke="white" stroke-width="2.0" /><text dominant-baseline="middle" font-family="sans-serif" font-size="inherit" x="135.0" y="55.0">makeRibosomalInterval</text><circle cx="55.0" cy="75.0" fill="#53c6c6" id="Nmapping" r="6.0" stroke="white" stroke-width="2.0" /><text dominant-baseline="middle" font-family="sans-serif" font-size="inherit" x="135.0" y="75.0">mapping</text><circle cx="35.0" cy="95.0" fill="#5353c6" id="Nsort" r="6.0" stroke="white" stroke-width="2.0" /><text dominant-baseline="middle" font-family="sans-serif" font-size="inherit" x="135.0" y="95.0">sort</text><circle cx="75.0" cy="115.0" fill="#c653c6" id="NCollectRnaSeqMetrics" r="6.0" stroke="white" stroke-width="2.0" /><text dominant-baseline="middle" font-family="sans-serif" font-size="inherit" x="135.0" y="115.0">CollectRnaSeqMetrics</text><circle cx="95.0" cy="135.0" fill="#c65353" id="NCollectInsertSizeMetrics" r="6.0" stroke="white" stroke-width="2.0" /><text dominant-baseline="middle" font-family="sans-serif" font-size="inherit" x="135.0" y="135.0">CollectInsertSizeMetrics</text><circle cx="35.0" cy="155.0" fill="#d98c8c" id="Nbigwig" r="6.0" stroke="white" stroke-width="2.0" /><text dominant-baseline="middle" font-family="sans-serif" font-size="inherit" x="135.0" y="155.0">bigwig</text><circle cx="95.0" cy="175.0" fill="#d9d98c" id="Nmultiqc" r="6.0" stroke="white" stroke-width="2.0" /><text dominant-baseline="middle" font-family="sans-serif" font-size="inherit" x="135.0" y="175.0">multiqc</text></g></svg>